<mxfile host="app.diagrams.net" modified="2023-11-20T08:34:33.729Z" agent="Mozilla/5.0 (Macintosh; Intel Mac OS X 10_15_7) AppleWebKit/537.36 (KHTML, like Gecko) Chrome/119.0.0.0 Safari/537.36" etag="RnfMzT1_VXGdOm6rTQ0s" version="22.1.3" type="device">
  <diagram name="Seite-1" id="WZINSq_0diT-gFb1PGhc">
    <mxGraphModel dx="1079" dy="820" grid="1" gridSize="10" guides="1" tooltips="1" connect="1" arrows="1" fold="1" page="1" pageScale="1" pageWidth="827" pageHeight="1169" math="0" shadow="0">
      <root>
        <mxCell id="0" />
        <mxCell id="1" parent="0" />
        <mxCell id="MDODKRwqs5hMhEg2z00J-1" value="&lt;font style=&quot;font-size: 20px;&quot;&gt;Patient&lt;/font&gt;" style="shape=umlActor;verticalLabelPosition=bottom;verticalAlign=top;html=1;outlineConnect=0;strokeWidth=5;" parent="1" vertex="1">
          <mxGeometry x="130" y="330" width="50" height="80" as="geometry" />
        </mxCell>
        <mxCell id="MDODKRwqs5hMhEg2z00J-3" value="" style="html=1;verticalLabelPosition=bottom;align=center;labelBackgroundColor=#ffffff;verticalAlign=top;strokeWidth=4;strokeColor=#000000;shadow=0;dashed=0;shape=mxgraph.ios7.icons.data;" parent="1" vertex="1">
          <mxGeometry x="115" y="550" width="80" height="80" as="geometry" />
        </mxCell>
        <mxCell id="MDODKRwqs5hMhEg2z00J-4" value="" style="sketch=0;pointerEvents=1;shadow=0;dashed=0;html=1;strokeColor=none;fillColor=#434445;aspect=fixed;labelPosition=center;verticalLabelPosition=bottom;verticalAlign=top;align=center;outlineConnect=0;shape=mxgraph.vvd.nsx_dashboard;strokeWidth=2;" parent="1" vertex="1">
          <mxGeometry x="360" y="680" width="107.53" height="100" as="geometry" />
        </mxCell>
        <mxCell id="MDODKRwqs5hMhEg2z00J-6" value="" style="shape=mxgraph.signs.healthcare.medical_records;html=1;pointerEvents=1;fillColor=#000000;strokeColor=none;verticalLabelPosition=bottom;verticalAlign=top;align=center;" parent="1" vertex="1">
          <mxGeometry x="350" y="410" width="98" height="98" as="geometry" />
        </mxCell>
        <mxCell id="MDODKRwqs5hMhEg2z00J-7" value="" style="shape=image;html=1;verticalAlign=top;verticalLabelPosition=bottom;labelBackgroundColor=#ffffff;imageAspect=0;aspect=fixed;image=https://cdn1.iconfinder.com/data/icons/medical-178/96/Doctor-128.png;strokeWidth=0;" parent="1" vertex="1">
          <mxGeometry x="80" y="780" width="130" height="130" as="geometry" />
        </mxCell>
        <mxCell id="MDODKRwqs5hMhEg2z00J-11" value="" style="endArrow=classic;html=1;rounded=0;" parent="1" edge="1">
          <mxGeometry relative="1" as="geometry">
            <mxPoint x="224.01" y="370" as="sourcePoint" />
            <mxPoint x="330" y="420" as="targetPoint" />
          </mxGeometry>
        </mxCell>
        <mxCell id="MDODKRwqs5hMhEg2z00J-12" value="&lt;font style=&quot;font-size: 20px;&quot;&gt;Gesundheitsdaten&lt;/font&gt;" style="edgeLabel;resizable=0;html=1;align=center;verticalAlign=middle;fontSize=15;" parent="MDODKRwqs5hMhEg2z00J-11" connectable="0" vertex="1">
          <mxGeometry relative="1" as="geometry">
            <mxPoint x="13" y="-5" as="offset" />
          </mxGeometry>
        </mxCell>
        <mxCell id="MDODKRwqs5hMhEg2z00J-13" value="" style="endArrow=classic;html=1;rounded=0;" parent="1" edge="1">
          <mxGeometry relative="1" as="geometry">
            <mxPoint x="330" y="460" as="sourcePoint" />
            <mxPoint x="180" y="530" as="targetPoint" />
          </mxGeometry>
        </mxCell>
        <mxCell id="MDODKRwqs5hMhEg2z00J-14" value="&lt;font style=&quot;font-size: 20px;&quot;&gt;Aufnahme in &lt;br&gt;erweiterbare Datenbank&lt;/font&gt;" style="edgeLabel;resizable=0;html=1;align=center;verticalAlign=middle;fontSize=15;" parent="MDODKRwqs5hMhEg2z00J-13" connectable="0" vertex="1">
          <mxGeometry relative="1" as="geometry">
            <mxPoint x="5" y="-5" as="offset" />
          </mxGeometry>
        </mxCell>
        <mxCell id="MDODKRwqs5hMhEg2z00J-15" value="" style="endArrow=classic;html=1;rounded=0;" parent="1" edge="1">
          <mxGeometry relative="1" as="geometry">
            <mxPoint x="220" y="600" as="sourcePoint" />
            <mxPoint x="340" y="680" as="targetPoint" />
          </mxGeometry>
        </mxCell>
        <mxCell id="MDODKRwqs5hMhEg2z00J-16" value="&lt;font style=&quot;font-size: 20px;&quot;&gt;Darstellung der Daten &lt;br&gt;in benutzerfreundlichen Frontend&amp;nbsp;&lt;/font&gt;" style="edgeLabel;resizable=0;html=1;align=center;verticalAlign=middle;fontSize=15;" parent="MDODKRwqs5hMhEg2z00J-15" connectable="0" vertex="1">
          <mxGeometry relative="1" as="geometry">
            <mxPoint x="70" as="offset" />
          </mxGeometry>
        </mxCell>
        <mxCell id="MDODKRwqs5hMhEg2z00J-17" value="" style="endArrow=classic;html=1;rounded=0;" parent="1" edge="1">
          <mxGeometry relative="1" as="geometry">
            <mxPoint x="350" y="700" as="sourcePoint" />
            <mxPoint x="190" y="800" as="targetPoint" />
            <Array as="points" />
          </mxGeometry>
        </mxCell>
        <mxCell id="MDODKRwqs5hMhEg2z00J-18" value="&lt;font style=&quot;font-size: 20px;&quot;&gt;VerfÃ¼gbarkeit der Daten&lt;br&gt;&amp;nbsp;im klinischen Alltag&lt;/font&gt;&amp;nbsp;" style="edgeLabel;resizable=0;html=1;align=center;verticalAlign=middle;fontSize=15;" parent="MDODKRwqs5hMhEg2z00J-17" connectable="0" vertex="1">
          <mxGeometry relative="1" as="geometry">
            <mxPoint x="-30" y="-5" as="offset" />
          </mxGeometry>
        </mxCell>
      </root>
    </mxGraphModel>
  </diagram>
</mxfile>
